<svg width="46" height="46" viewBox="0 0 46 46" fill="none" xmlns="http://www.w3.org/2000/svg">
<rect x="0.25" y="0.25" width="45.5" height="45.5" rx="22.75" fill="#F5F5F5"/>
<rect x="0.25" y="0.25" width="45.5" height="45.5" rx="22.75" stroke="#EFEFEF" stroke-width="0.5"/>
<g clip-path="url(#clip0_61_1782)">
<path d="M27.5 22.25V18.5C27.5 18.1022 27.342 17.7206 27.0607 17.4393C26.7794 17.158 26.3978 17 26 17C25.6022 17 25.2206 17.158 24.9393 17.4393C24.658 17.7206 24.5 18.1022 24.5 18.5" stroke="#2B313C" stroke-width="1.3" stroke-linecap="round" stroke-linejoin="round"/>
<path d="M24.5 21.5V17C24.5 16.6022 24.342 16.2206 24.0607 15.9393C23.7794 15.658 23.3978 15.5 23 15.5C22.6022 15.5 22.2206 15.658 21.9393 15.9393C21.658 16.2206 21.5 16.6022 21.5 17V18.5" stroke="#2B313C" stroke-width="1.3" stroke-linecap="round" stroke-linejoin="round"/>
<path d="M21.5 21.875V18.5C21.5 18.1022 21.342 17.7206 21.0607 17.4393C20.7794 17.158 20.3978 17 20 17C19.6022 17 19.2206 17.158 18.9393 17.4393C18.658 17.7206 18.5 18.1022 18.5 18.5V24.5" stroke="#2B313C" stroke-width="1.3" stroke-linecap="round" stroke-linejoin="round"/>
<path d="M27.5001 20C27.5001 19.6022 27.6581 19.2206 27.9394 18.9393C28.2207 18.658 28.6023 18.5 29.0001 18.5C29.3979 18.5 29.7794 18.658 30.0607 18.9393C30.342 19.2206 30.5001 19.6022 30.5001 20V24.5C30.5001 26.0913 29.8679 27.6174 28.7427 28.7426C27.6175 29.8679 26.0914 30.5 24.5001 30.5H23.0001C20.9001 30.5 19.6251 29.855 18.5076 28.745L15.8076 26.045C15.5495 25.7592 15.4113 25.3851 15.4214 25.0002C15.4316 24.6153 15.5894 24.249 15.8621 23.9772C16.1349 23.7054 16.5017 23.5489 16.8867 23.5401C17.2716 23.5314 17.6452 23.6709 17.9301 23.93L19.2501 25.25" stroke="#2B313C" stroke-width="1.3" stroke-linecap="round" stroke-linejoin="round"/>
</g>
<defs>
<clipPath id="clip0_61_1782">
<rect width="18" height="18" fill="white" transform="translate(14 14)"/>
</clipPath>
</defs>
</svg>
