<svg width="45" height="45" viewBox="0 0 45 45" fill="none" xmlns="http://www.w3.org/2000/svg">
<path d="M0 8C0 3.58172 3.58172 0 8 0H37C41.4183 0 45 3.58172 45 8V37C45 41.4183 41.4183 45 37 45H8C3.58172 45 0 41.4183 0 37V8Z" fill="#F9FAFC"/>
<g clip-path="url(#clip0_9_114)">
<path d="M15 20.4167C15 21.8533 15.5707 23.231 16.5865 24.2468C17.6023 25.2627 18.9801 25.8333 20.4167 25.8333C21.8533 25.8333 23.231 25.2627 24.2468 24.2468C25.2627 23.231 25.8333 21.8533 25.8333 20.4167C25.8333 18.9801 25.2627 17.6023 24.2468 16.5865C23.231 15.5707 21.8533 15 20.4167 15C18.9801 15 17.6023 15.5707 16.5865 16.5865C15.5707 17.6023 15 18.9801 15 20.4167Z" stroke="#1A2733" stroke-width="1.4" stroke-linecap="round" stroke-linejoin="round"/>
<path d="M20.8335 22.4987C20.8335 22.0567 21.0091 21.6327 21.3217 21.3202C21.6342 21.0076 22.0581 20.832 22.5002 20.832H28.3335C28.7755 20.832 29.1994 21.0076 29.512 21.3202C29.8246 21.6327 30.0002 22.0567 30.0002 22.4987V28.332C30.0002 28.7741 29.8246 29.198 29.512 29.5105C29.1994 29.8231 28.7755 29.9987 28.3335 29.9987H22.5002C22.0581 29.9987 21.6342 29.8231 21.3217 29.5105C21.0091 29.198 20.8335 28.7741 20.8335 28.332V22.4987Z" stroke="#1A2733" stroke-width="1.4" stroke-linecap="round" stroke-linejoin="round"/>
</g>
<defs>
<clipPath id="clip0_9_114">
<rect width="20" height="20" fill="white" transform="translate(12.5 12.5)"/>
</clipPath>
</defs>
</svg>
