<svg width="66" height="46" viewBox="0 0 66 46" fill="none" xmlns="http://www.w3.org/2000/svg">
<rect x="0.25" y="0.25" width="65.5" height="45.5" rx="22.75" fill="#AB342E"/>
<rect x="0.25" y="0.25" width="65.5" height="45.5" rx="22.75" stroke="#EFEFEF" stroke-width="0.5"/>
<g clip-path="url(#clip0_61_1790)">
<path d="M34.5 20V18.5C34.5 18.1022 34.342 17.7206 34.0607 17.4393C33.7794 17.158 33.3978 17 33 17H27.75C27.3522 17 26.9706 17.158 26.6893 17.4393C26.408 17.7206 26.25 18.1022 26.25 18.5V27.5C26.25 27.8978 26.408 28.2794 26.6893 28.5607C26.9706 28.842 27.3522 29 27.75 29H33C33.3978 29 33.7794 28.842 34.0607 28.5607C34.342 28.2794 34.5 27.8978 34.5 27.5V26" stroke="white" stroke-width="1.4" stroke-linecap="round" stroke-linejoin="round"/>
<path d="M30.75 23H39.75L37.5 20.75" stroke="white" stroke-width="1.4" stroke-linecap="round" stroke-linejoin="round"/>
<path d="M37.5 25.25L39.75 23" stroke="white" stroke-width="1.4" stroke-linecap="round" stroke-linejoin="round"/>
</g>
<defs>
<clipPath id="clip0_61_1790">
<rect width="18" height="18" fill="white" transform="translate(24 14)"/>
</clipPath>
</defs>
</svg>
