<svg width="46" height="46" viewBox="0 0 46 46" fill="none" xmlns="http://www.w3.org/2000/svg">
<rect x="0.25" y="0.25" width="45.5" height="45.5" rx="22.75" fill="#F5F5F5"/>
<rect x="0.25" y="0.25" width="45.5" height="45.5" rx="22.75" stroke="#EFEFEF" stroke-width="0.5"/>
<path d="M23 28.25V30.5" stroke="#2B313C" stroke-width="1.4" stroke-linecap="round" stroke-linejoin="round"/>
<path d="M28.25 21.5V23C28.25 24.3924 27.6969 25.7277 26.7123 26.7123C25.7277 27.6969 24.3924 28.25 23 28.25C21.6076 28.25 20.2723 27.6969 19.2877 26.7123C18.3031 25.7277 17.75 24.3924 17.75 23V21.5" stroke="#2B313C" stroke-width="1.4" stroke-linecap="round" stroke-linejoin="round"/>
<path d="M25.25 17.75C25.25 16.5074 24.2426 15.5 23 15.5C21.7574 15.5 20.75 16.5074 20.75 17.75V23C20.75 24.2426 21.7574 25.25 23 25.25C24.2426 25.25 25.25 24.2426 25.25 23V17.75Z" stroke="#2B313C" stroke-width="1.4" stroke-linecap="round" stroke-linejoin="round"/>
</svg>
