<svg width="46" height="46" viewBox="0 0 46 46" fill="none" xmlns="http://www.w3.org/2000/svg">
<rect x="0.25" y="0.25" width="45.5" height="45.5" rx="22.75" fill="#F5F5F5"/>
<rect x="0.25" y="0.25" width="45.5" height="45.5" rx="22.75" stroke="#EFEFEF" stroke-width="0.5"/>
<g clip-path="url(#clip0_61_1780)">
<path d="M17.75 21.5C17.75 22.1894 17.8858 22.8721 18.1496 23.5091C18.4135 24.146 18.8002 24.7248 19.2877 25.2123C19.7752 25.6998 20.354 26.0865 20.9909 26.3504C21.6279 26.6142 22.3106 26.75 23 26.75C23.6894 26.75 24.3721 26.6142 25.0091 26.3504C25.646 26.0865 26.2248 25.6998 26.7123 25.2123C27.1998 24.7248 27.5865 24.146 27.8504 23.5091C28.1142 22.8721 28.25 22.1894 28.25 21.5C28.25 20.8106 28.1142 20.1279 27.8504 19.4909C27.5865 18.854 27.1998 18.2752 26.7123 17.7877C26.2248 17.3002 25.646 16.9135 25.0091 16.6496C24.3721 16.3858 23.6894 16.25 23 16.25C22.3106 16.25 21.6279 16.3858 20.9909 16.6496C20.354 16.9135 19.7752 17.3002 19.2877 17.7877C18.8002 18.2752 18.4135 18.854 18.1496 19.4909C17.8858 20.1279 17.75 20.8106 17.75 21.5Z" stroke="#2B313C" stroke-width="1.3" stroke-linecap="round" stroke-linejoin="round"/>
<path d="M20.75 21.5C20.75 22.0967 20.9871 22.669 21.409 23.091C21.831 23.5129 22.4033 23.75 23 23.75C23.5967 23.75 24.169 23.5129 24.591 23.091C25.0129 22.669 25.25 22.0967 25.25 21.5C25.25 20.9033 25.0129 20.331 24.591 19.909C24.169 19.4871 23.5967 19.25 23 19.25C22.4033 19.25 21.831 19.4871 21.409 19.909C20.9871 20.331 20.75 20.9033 20.75 21.5Z" stroke="#2B313C" stroke-width="1.3" stroke-linecap="round" stroke-linejoin="round"/>
<path d="M20.0001 26L18.4319 28.6145C18.3637 28.7283 18.3269 28.8581 18.3253 28.9907C18.3236 29.1233 18.3572 29.254 18.4225 29.3695C18.4878 29.4849 18.5826 29.5809 18.6972 29.6478C18.8117 29.7146 18.942 29.7499 19.0746 29.75H26.9256C27.0582 29.7499 27.1885 29.7146 27.303 29.6478C27.4176 29.5809 27.5124 29.4849 27.5777 29.3695C27.643 29.254 27.6766 29.1233 27.675 28.9907C27.6733 28.8581 27.6365 28.7283 27.5684 28.6145L26.0001 26" stroke="#2B313C" stroke-width="1.3" stroke-linecap="round" stroke-linejoin="round"/>
</g>
<defs>
<clipPath id="clip0_61_1780">
<rect width="18" height="18" fill="white" transform="translate(14 14)"/>
</clipPath>
</defs>
</svg>
