<svg width="46" height="46" viewBox="0 0 46 46" fill="none" xmlns="http://www.w3.org/2000/svg">
<rect x="0.25" y="0.25" width="45.5" height="45.5" rx="22.75" fill="#F5F5F5"/>
<rect x="0.25" y="0.25" width="45.5" height="45.5" rx="22.75" stroke="#EFEFEF" stroke-width="0.5"/>
<path d="M26 23.75L29.9172 26.3615C29.9737 26.399 30.0393 26.4206 30.1071 26.4238C30.1748 26.4271 30.2422 26.4119 30.302 26.3799C30.3618 26.3478 30.4118 26.3002 30.4467 26.242C30.4815 26.1838 30.5 26.1173 30.5 26.0495V19.9025C30.5 19.8365 30.4826 19.7717 30.4496 19.7145C30.4165 19.6574 30.369 19.61 30.3118 19.5772C30.2546 19.5443 30.1897 19.5271 30.1237 19.5273C30.0577 19.5276 29.993 19.5452 29.936 19.5785L26 21.875" stroke="#2B313C" stroke-width="1.4" stroke-linecap="round" stroke-linejoin="round"/>
<path d="M24.5 18.5H17C16.1716 18.5 15.5 19.1716 15.5 20V26C15.5 26.8284 16.1716 27.5 17 27.5H24.5C25.3284 27.5 26 26.8284 26 26V20C26 19.1716 25.3284 18.5 24.5 18.5Z" stroke="#2B313C" stroke-width="1.4" stroke-linecap="round" stroke-linejoin="round"/>
</svg>
