<svg width="46" height="46" viewBox="0 0 46 46" fill="none" xmlns="http://www.w3.org/2000/svg">
<rect x="0.25" y="0.25" width="45.5" height="45.5" rx="22.75" fill="#F5F5F5"/>
<rect x="0.25" y="0.25" width="45.5" height="45.5" rx="22.75" stroke="#EFEFEF" stroke-width="0.5"/>
<path d="M21.2532 17.1016C21.2946 16.6669 21.4965 16.2632 21.8196 15.9693C22.1426 15.6755 22.5637 15.5127 23.0004 15.5127C23.4371 15.5127 23.8581 15.6755 24.1812 15.9693C24.5042 16.2632 24.7062 16.6669 24.7475 17.1016C24.7723 17.3825 24.8645 17.6532 25.0161 17.8909C25.1677 18.1286 25.3744 18.3262 25.6186 18.4671C25.8628 18.608 26.1373 18.688 26.419 18.7003C26.7007 18.7127 26.9812 18.6569 27.2367 18.5379C27.6336 18.3577 28.0832 18.3316 28.4982 18.4647C28.9132 18.5978 29.2639 18.8806 29.4819 19.258C29.6999 19.6353 29.7697 20.0803 29.6777 20.5063C29.5857 20.9323 29.3385 21.3088 28.9842 21.5626C28.7535 21.7245 28.5652 21.9396 28.4352 22.1896C28.3051 22.4397 28.2373 22.7174 28.2373 22.9993C28.2373 23.2811 28.3051 23.5588 28.4352 23.8089C28.5652 24.0589 28.7535 24.274 28.9842 24.4359C29.3385 24.6897 29.5857 25.0662 29.6777 25.4922C29.7697 25.9182 29.6999 26.3632 29.4819 26.7405C29.2639 27.1179 28.9132 27.4007 28.4982 27.5338C28.0832 27.6669 27.6336 27.6408 27.2367 27.4606C26.9812 27.3416 26.7007 27.2858 26.419 27.2982C26.1373 27.3105 25.8628 27.3905 25.6186 27.5314C25.3744 27.6723 25.1677 27.8699 25.0161 28.1076C24.8645 28.3453 24.7723 28.616 24.7475 28.8969C24.7062 29.3316 24.5042 29.7353 24.1812 30.0292C23.8581 30.323 23.4371 30.4858 23.0004 30.4858C22.5637 30.4858 22.1426 30.323 21.8196 30.0292C21.4965 29.7353 21.2946 29.3316 21.2532 28.8969C21.2284 28.6159 21.1363 28.3451 20.9846 28.1073C20.833 27.8696 20.6262 27.6718 20.3819 27.5309C20.1376 27.39 19.8629 27.31 19.5812 27.2978C19.2994 27.2856 19.0188 27.3414 18.7632 27.4606C18.3664 27.6408 17.9167 27.6669 17.5017 27.5338C17.0867 27.4007 16.7361 27.1179 16.5181 26.7405C16.3001 26.3632 16.2303 25.9182 16.3223 25.4922C16.4142 25.0662 16.6614 24.6897 17.0157 24.4359C17.2464 24.274 17.4348 24.0589 17.5648 23.8089C17.6948 23.5588 17.7627 23.2811 17.7627 22.9993C17.7627 22.7174 17.6948 22.4397 17.5648 22.1896C17.4348 21.9396 17.2464 21.7245 17.0157 21.5626C16.6619 21.3087 16.4152 20.9323 16.3234 20.5066C16.2316 20.0809 16.3014 19.6363 16.5192 19.2592C16.737 18.882 17.0872 18.5994 17.5018 18.4661C17.9164 18.3328 18.3657 18.3584 18.7625 18.5379C19.0181 18.6569 19.2985 18.7127 19.5802 18.7003C19.8619 18.688 20.1364 18.608 20.3806 18.4671C20.6248 18.3262 20.8315 18.1286 20.9831 17.8909C21.1348 17.6532 21.2269 17.3825 21.2517 17.1016" stroke="#2B313C" stroke-width="1.4" stroke-linecap="round" stroke-linejoin="round"/>
<path d="M23 25.25C24.2426 25.25 25.25 24.2426 25.25 23C25.25 21.7574 24.2426 20.75 23 20.75C21.7574 20.75 20.75 21.7574 20.75 23C20.75 24.2426 21.7574 25.25 23 25.25Z" stroke="#2B313C" stroke-width="1.4" stroke-linecap="round" stroke-linejoin="round"/>
</svg>
