<svg width="346" height="70" viewBox="0 0 346 70" fill="none" xmlns="http://www.w3.org/2000/svg">
<rect width="346" height="70" fill="white"/>
<rect x="24.25" y="12.25" width="45.5" height="45.5" rx="22.75" fill="#F5F5F5"/>
<rect x="24.25" y="12.25" width="45.5" height="45.5" rx="22.75" stroke="#EFEFEF" stroke-width="0.5"/>
<path d="M47 40.25V42.5" stroke="#2B313C" stroke-width="1.4" stroke-linecap="round" stroke-linejoin="round"/>
<path d="M52.25 33.5V35C52.25 36.3924 51.6969 37.7277 50.7123 38.7123C49.7277 39.6969 48.3924 40.25 47 40.25C45.6076 40.25 44.2723 39.6969 43.2877 38.7123C42.3031 37.7277 41.75 36.3924 41.75 35V33.5" stroke="#2B313C" stroke-width="1.4" stroke-linecap="round" stroke-linejoin="round"/>
<path d="M49.25 29.75C49.25 28.5074 48.2426 27.5 47 27.5C45.7574 27.5 44.75 28.5074 44.75 29.75V35C44.75 36.2426 45.7574 37.25 47 37.25C48.2426 37.25 49.25 36.2426 49.25 35V29.75Z" stroke="#2B313C" stroke-width="1.4" stroke-linecap="round" stroke-linejoin="round"/>
<rect x="82.25" y="12.25" width="45.5" height="45.5" rx="22.75" fill="#F5F5F5"/>
<rect x="82.25" y="12.25" width="45.5" height="45.5" rx="22.75" stroke="#EFEFEF" stroke-width="0.5"/>
<path d="M99 41C98.5875 41 98.2313 40.8563 97.9313 40.5688C97.6438 40.2688 97.5 39.9125 97.5 39.5V30.5C97.5 30.0875 97.6438 29.7375 97.9313 29.45C98.2313 29.15 98.5875 29 99 29H108C108.413 29 108.763 29.15 109.05 29.45C109.35 29.7375 109.5 30.0875 109.5 30.5V33.875L112.5 30.875V39.125L109.5 36.125V39.5C109.5 39.9125 109.35 40.2688 109.05 40.5688C108.763 40.8563 108.413 41 108 41H99ZM99 39.5H108V30.5H99V39.5ZM99 39.5V30.5V39.5Z" fill="#2B313C"/>
<rect x="140.25" y="12.25" width="45.5" height="45.5" rx="22.75" fill="#F5F5F5"/>
<rect x="140.25" y="12.25" width="45.5" height="45.5" rx="22.75" stroke="#EFEFEF" stroke-width="0.5"/>
<g clip-path="url(#clip0_2_54)">
<path d="M157.75 33.5C157.75 34.1894 157.886 34.8721 158.15 35.5091C158.413 36.146 158.8 36.7248 159.288 37.2123C159.775 37.6998 160.354 38.0865 160.991 38.3504C161.628 38.6142 162.311 38.75 163 38.75C163.689 38.75 164.372 38.6142 165.009 38.3504C165.646 38.0865 166.225 37.6998 166.712 37.2123C167.2 36.7248 167.587 36.146 167.85 35.5091C168.114 34.8721 168.25 34.1894 168.25 33.5C168.25 32.8106 168.114 32.1279 167.85 31.4909C167.587 30.854 167.2 30.2752 166.712 29.7877C166.225 29.3002 165.646 28.9135 165.009 28.6496C164.372 28.3858 163.689 28.25 163 28.25C162.311 28.25 161.628 28.3858 160.991 28.6496C160.354 28.9135 159.775 29.3002 159.288 29.7877C158.8 30.2752 158.413 30.854 158.15 31.4909C157.886 32.1279 157.75 32.8106 157.75 33.5Z" stroke="#2B313C" stroke-width="1.4" stroke-linecap="round" stroke-linejoin="round"/>
<path d="M160.75 33.5C160.75 34.0967 160.987 34.669 161.409 35.091C161.831 35.5129 162.403 35.75 163 35.75C163.597 35.75 164.169 35.5129 164.591 35.091C165.013 34.669 165.25 34.0967 165.25 33.5C165.25 32.9033 165.013 32.331 164.591 31.909C164.169 31.4871 163.597 31.25 163 31.25C162.403 31.25 161.831 31.4871 161.409 31.909C160.987 32.331 160.75 32.9033 160.75 33.5Z" stroke="#2B313C" stroke-width="1.4" stroke-linecap="round" stroke-linejoin="round"/>
<path d="M160 38L158.432 40.6145C158.364 40.7283 158.327 40.8581 158.325 40.9907C158.324 41.1233 158.357 41.254 158.422 41.3695C158.488 41.4849 158.583 41.5809 158.697 41.6478C158.812 41.7146 158.942 41.7499 159.074 41.75H166.925C167.058 41.7499 167.188 41.7146 167.303 41.6478C167.417 41.5809 167.512 41.4849 167.578 41.3695C167.643 41.254 167.676 41.1233 167.675 40.9907C167.673 40.8581 167.636 40.7283 167.568 40.6145L166 38" stroke="#2B313C" stroke-width="1.4" stroke-linecap="round" stroke-linejoin="round"/>
</g>
<rect x="198.25" y="12.25" width="45.5" height="45.5" rx="22.75" fill="#F5F5F5"/>
<rect x="198.25" y="12.25" width="45.5" height="45.5" rx="22.75" stroke="#EFEFEF" stroke-width="0.5"/>
<path d="M219.253 29.102C219.295 28.6672 219.496 28.2635 219.82 27.9697C220.143 27.6759 220.564 27.5131 221 27.5131C221.437 27.5131 221.858 27.6759 222.181 27.9697C222.504 28.2635 222.706 28.6672 222.747 29.102C222.772 29.3828 222.864 29.6536 223.016 29.8912C223.168 30.1289 223.374 30.3266 223.619 30.4675C223.863 30.6084 224.137 30.6884 224.419 30.7007C224.701 30.713 224.981 30.6573 225.237 30.5382C225.634 30.3581 226.083 30.332 226.498 30.4651C226.913 30.5982 227.264 30.881 227.482 31.2583C227.7 31.6357 227.77 32.0807 227.678 32.5067C227.586 32.9327 227.339 33.3092 226.984 33.563C226.754 33.7249 226.565 33.9399 226.435 34.19C226.305 34.4401 226.237 34.7178 226.237 34.9996C226.237 35.2815 226.305 35.5592 226.435 35.8092C226.565 36.0593 226.754 36.2744 226.984 36.4362C227.339 36.69 227.586 37.0666 227.678 37.4926C227.77 37.9186 227.7 38.3635 227.482 38.7409C227.264 39.1183 226.913 39.401 226.498 39.5341C226.083 39.6672 225.634 39.6412 225.237 39.461C224.981 39.3419 224.701 39.2862 224.419 39.2985C224.137 39.3108 223.863 39.3908 223.619 39.5317C223.374 39.6726 223.168 39.8703 223.016 40.108C222.864 40.3457 222.772 40.6164 222.747 40.8972C222.706 41.332 222.504 41.7357 222.181 42.0295C221.858 42.3234 221.437 42.4862 221 42.4862C220.564 42.4862 220.143 42.3234 219.82 42.0295C219.496 41.7357 219.295 41.332 219.253 40.8972C219.228 40.6163 219.136 40.3455 218.985 40.1077C218.833 39.8699 218.626 39.6722 218.382 39.5313C218.138 39.3904 217.863 39.3104 217.581 39.2982C217.299 39.2859 217.019 39.3418 216.763 39.461C216.366 39.6412 215.917 39.6672 215.502 39.5341C215.087 39.401 214.736 39.1183 214.518 38.7409C214.3 38.3635 214.23 37.9186 214.322 37.4926C214.414 37.0666 214.661 36.69 215.016 36.4362C215.246 36.2744 215.435 36.0593 215.565 35.8092C215.695 35.5592 215.763 35.2815 215.763 34.9996C215.763 34.7178 215.695 34.4401 215.565 34.19C215.435 33.9399 215.246 33.7249 215.016 33.563C214.662 33.3091 214.415 32.9327 214.323 32.507C214.232 32.0813 214.301 31.6366 214.519 31.2595C214.737 30.8824 215.087 30.5997 215.502 30.4664C215.916 30.3331 216.366 30.3587 216.762 30.5382C217.018 30.6573 217.299 30.713 217.58 30.7007C217.862 30.6884 218.136 30.6084 218.381 30.4675C218.625 30.3266 218.832 30.1289 218.983 29.8912C219.135 29.6536 219.227 29.3828 219.252 29.102" stroke="#1A2733" stroke-width="1.3" stroke-linecap="round" stroke-linejoin="round"/>
<path d="M221 37.25C222.243 37.25 223.25 36.2426 223.25 35C223.25 33.7574 222.243 32.75 221 32.75C219.757 32.75 218.75 33.7574 218.75 35C218.75 36.2426 219.757 37.25 221 37.25Z" stroke="#1A2733" stroke-width="1.3" stroke-linecap="round" stroke-linejoin="round"/>
<rect x="256.25" y="12.25" width="65.5" height="45.5" rx="22.75" fill="#AB342E"/>
<rect x="256.25" y="12.25" width="65.5" height="45.5" rx="22.75" stroke="#EFEFEF" stroke-width="0.5"/>
<g clip-path="url(#clip1_2_54)">
<path d="M290.5 32V30.5C290.5 30.1022 290.342 29.7206 290.061 29.4393C289.779 29.158 289.398 29 289 29H283.75C283.352 29 282.971 29.158 282.689 29.4393C282.408 29.7206 282.25 30.1022 282.25 30.5V39.5C282.25 39.8978 282.408 40.2794 282.689 40.5607C282.971 40.842 283.352 41 283.75 41H289C289.398 41 289.779 40.842 290.061 40.5607C290.342 40.2794 290.5 39.8978 290.5 39.5V38" stroke="white" stroke-width="1.4" stroke-linecap="round" stroke-linejoin="round"/>
<path d="M286.75 35H295.75L293.5 32.75" stroke="white" stroke-width="1.4" stroke-linecap="round" stroke-linejoin="round"/>
<path d="M293.5 37.25L295.75 35" stroke="white" stroke-width="1.4" stroke-linecap="round" stroke-linejoin="round"/>
</g>
<defs>
<clipPath id="clip0_2_54">
<rect width="18" height="18" fill="white" transform="translate(154 26)"/>
</clipPath>
<clipPath id="clip1_2_54">
<rect width="18" height="18" fill="white" transform="translate(280 26)"/>
</clipPath>
</defs>
</svg>
