<svg width="164" height="84" viewBox="0 0 164 84" fill="none" xmlns="http://www.w3.org/2000/svg">
<foreignObject x="-59.3846" y="-67.3846" width="282.769" height="202.769"><div xmlns="http://www.w3.org/1999/xhtml" style="backdrop-filter:blur(41.69px);clip-path:url(#bgblur_0_13_106_clip_path);height:100%;width:100%"></div></foreignObject><g data-figma-bg-blur-radius="83.3846">
<path d="M24 24C24 19.5817 27.5817 16 32 16H132C136.418 16 140 19.5817 140 24V44C140 48.4183 136.418 52 132 52H32C27.5817 52 24 48.4183 24 44V24Z" fill="white"/>
<g filter="url(#filter1_dd_13_106)">
<foreignObject x="-59.3846" y="-67.3846" width="282.769" height="202.769"><div xmlns="http://www.w3.org/1999/xhtml" style="backdrop-filter:blur(41.69px);clip-path:url(#bgblur_1_13_106_clip_path);height:100%;width:100%"></div></foreignObject><path data-figma-bg-blur-radius="83.3846" d="M140 44C140 48.4183 136.418 52 132 52H32C27.5817 52 24 48.4183 24 44V24C24 19.5817 27.5817 16 32 16H132C136.418 16 140 19.5817 140 24V44Z" fill="white"/>
</g>
<g clip-path="url(#clip2_13_106)">
<path d="M43.084 32.6378C43.084 32.2252 43.2479 31.8295 43.5397 31.5377C43.8314 31.2459 44.2271 31.082 44.6397 31.082H49.6949C49.8992 31.082 50.1015 31.1223 50.2903 31.2005C50.479 31.2786 50.6505 31.3932 50.795 31.5377C50.9394 31.6822 51.054 31.8537 51.1322 32.0424C51.2104 32.2312 51.2507 32.4335 51.2507 32.6378V37.6929C51.2507 37.8973 51.2104 38.0996 51.1322 38.2883C51.054 38.4771 50.9394 38.6486 50.795 38.793C50.6505 38.9375 50.479 39.0521 50.2903 39.1303C50.1015 39.2085 49.8992 39.2487 49.6949 39.2487H44.6397C44.4354 39.2487 44.2331 39.2085 44.0444 39.1303C43.8556 39.0521 43.6841 38.9375 43.5397 38.793C43.3952 38.6486 43.2806 38.4771 43.2024 38.2883C43.1242 38.0996 43.084 37.8973 43.084 37.6929V32.6378Z" stroke="#1A2733" stroke-width="1.2" stroke-linecap="round" stroke-linejoin="round"/>
<path d="M41.3403 36.7633C41.1614 36.6613 41.0127 36.5139 40.909 36.336C40.8053 36.158 40.7505 35.9559 40.75 35.75V29.9167C40.75 29.275 41.275 28.75 41.9167 28.75H47.75C48.1875 28.75 48.4255 28.9746 48.625 29.3333" stroke="#1A2733" stroke-width="1.2" stroke-linecap="round" stroke-linejoin="round"/>
</g>
<g clip-path="url(#clip3_13_106)">
<path d="M67.334 32.9999L71.662 28.6719" stroke="#1A2733" stroke-width="1.2" stroke-linecap="round" stroke-linejoin="round"/>
<path d="M70.998 36.668L75.334 32.332" stroke="#1A2733" stroke-width="1.2" stroke-linecap="round" stroke-linejoin="round"/>
<path d="M67.7246 36.2766L74.9426 29.0586" stroke="#1A2733" stroke-width="1.2" stroke-linecap="round" stroke-linejoin="round"/>
<path d="M67.334 30.0013C67.334 29.6477 67.4745 29.3085 67.7245 29.0585C67.9746 28.8084 68.3137 28.668 68.6673 28.668H74.0007C74.3543 28.668 74.6934 28.8084 74.9435 29.0585C75.1935 29.3085 75.334 29.6477 75.334 30.0013V35.3346C75.334 35.6883 75.1935 36.0274 74.9435 36.2774C74.6934 36.5275 74.3543 36.668 74.0007 36.668H68.6673C68.3137 36.668 67.9746 36.5275 67.7245 36.2774C67.4745 36.0274 67.334 35.6883 67.334 35.3346V30.0013Z" stroke="#1A2733" stroke-width="1.2" stroke-linecap="round" stroke-linejoin="round"/>
<path d="M72.666 36.6654V37.9987C72.666 38.3523 72.5255 38.6915 72.2755 38.9415C72.0254 39.1916 71.6863 39.332 71.3327 39.332H65.9993C65.6457 39.332 65.3066 39.1916 65.0565 38.9415C64.8065 38.6915 64.666 38.3523 64.666 37.9987V32.6654C64.666 32.3117 64.8065 31.9726 65.0565 31.7226C65.3066 31.4725 65.6457 31.332 65.9993 31.332H67.3327" stroke="#1A2733" stroke-width="1.2" stroke-linecap="round" stroke-linejoin="round"/>
</g>
<g clip-path="url(#clip4_13_106)">
<path d="M88.666 35.6667L91.3327 33" stroke="#1A2733" stroke-width="1.2" stroke-linecap="round" stroke-linejoin="round"/>
<path d="M92.3301 39.3346L94.9994 36.668" stroke="#1A2733" stroke-width="1.2" stroke-linecap="round" stroke-linejoin="round"/>
<path d="M89.0566 38.9414L91.666 36.332" stroke="#1A2733" stroke-width="1.2" stroke-linecap="round" stroke-linejoin="round"/>
<path d="M91.334 30.0013C91.334 29.6477 91.4745 29.3085 91.7245 29.0585C91.9746 28.8084 92.3137 28.668 92.6673 28.668H98.0007C98.3543 28.668 98.6934 28.8084 98.9435 29.0585C99.1935 29.3085 99.334 29.6477 99.334 30.0013V35.3346C99.334 35.6883 99.1935 36.0274 98.9435 36.2774C98.6934 36.5275 98.3543 36.668 98.0007 36.668H92.6673C92.3137 36.668 91.9746 36.5275 91.7245 36.2774C91.4745 36.0274 91.334 35.6883 91.334 35.3346V30.0013Z" stroke="#1A2733" stroke-width="1.2" stroke-linecap="round" stroke-linejoin="round"/>
<path d="M96.666 36.6654V37.9987C96.666 38.3523 96.5255 38.6915 96.2755 38.9415C96.0254 39.1916 95.6863 39.332 95.3327 39.332H89.9993C89.6457 39.332 89.3066 39.1916 89.0565 38.9415C88.8065 38.6915 88.666 38.3523 88.666 37.9987V32.6654C88.666 32.3117 88.8065 31.9726 89.0565 31.7226C89.3066 31.4725 89.6457 31.332 89.9993 31.332H91.3327" stroke="#1A2733" stroke-width="1.2" stroke-linecap="round" stroke-linejoin="round"/>
</g>
<g clip-path="url(#clip5_13_106)">
<path d="M112.666 30.668H123.333" stroke="#AB342E" stroke-width="2" stroke-linecap="round" stroke-linejoin="round"/>
<path d="M116.666 33.332V37.332" stroke="#AB342E" stroke-width="1.6" stroke-linecap="round" stroke-linejoin="round"/>
<path d="M119.334 33.332V37.332" stroke="#AB342E" stroke-width="1.6" stroke-linecap="round" stroke-linejoin="round"/>
<path d="M113.334 30.668L114.001 38.668C114.001 39.0216 114.141 39.3607 114.391 39.6108C114.641 39.8608 114.98 40.0013 115.334 40.0013H120.667C121.021 40.0013 121.36 39.8608 121.61 39.6108C121.86 39.3607 122.001 39.0216 122.001 38.668L122.667 30.668" stroke="#AB342E" stroke-width="1.6" stroke-linecap="round" stroke-linejoin="round"/>
<path d="M116 30.6667V28.6667C116 28.4899 116.07 28.3203 116.195 28.1953C116.32 28.0702 116.49 28 116.667 28H119.333C119.51 28 119.68 28.0702 119.805 28.1953C119.93 28.3203 120 28.4899 120 28.6667V30.6667" stroke="#AB342E" stroke-width="1.6" stroke-linecap="round" stroke-linejoin="round"/>
</g>
</g>
<defs>
<clipPath id="bgblur_0_13_106_clip_path" transform="translate(59.3846 67.3846)"><path d="M24 24C24 19.5817 27.5817 16 32 16H132C136.418 16 140 19.5817 140 24V44C140 48.4183 136.418 52 132 52H32C27.5817 52 24 48.4183 24 44V24Z"/>
</clipPath><filter id="filter1_dd_13_106" x="0" y="0" width="164" height="84" filterUnits="userSpaceOnUse" color-interpolation-filters="sRGB">
<feFlood flood-opacity="0" result="BackgroundImageFix"/>
<feColorMatrix in="SourceAlpha" type="matrix" values="0 0 0 0 0 0 0 0 0 0 0 0 0 0 0 0 0 0 127 0" result="hardAlpha"/>
<feOffset dy="2"/>
<feGaussianBlur stdDeviation="1"/>
<feComposite in2="hardAlpha" operator="out"/>
<feColorMatrix type="matrix" values="0 0 0 0 0 0 0 0 0 0 0 0 0 0 0 0 0 0 0.1 0"/>
<feBlend mode="normal" in2="BackgroundImageFix" result="effect1_dropShadow_13_106"/>
<feColorMatrix in="SourceAlpha" type="matrix" values="0 0 0 0 0 0 0 0 0 0 0 0 0 0 0 0 0 0 127 0" result="hardAlpha"/>
<feOffset dy="8"/>
<feGaussianBlur stdDeviation="12"/>
<feComposite in2="hardAlpha" operator="out"/>
<feColorMatrix type="matrix" values="0 0 0 0 0 0 0 0 0 0 0 0 0 0 0 0 0 0 0.12 0"/>
<feBlend mode="normal" in2="effect1_dropShadow_13_106" result="effect2_dropShadow_13_106"/>
<feBlend mode="normal" in="SourceGraphic" in2="effect2_dropShadow_13_106" result="shape"/>
</filter>
<clipPath id="bgblur_1_13_106_clip_path" transform="translate(59.3846 67.3846)"><path d="M140 44C140 48.4183 136.418 52 132 52H32C27.5817 52 24 48.4183 24 44V24C24 19.5817 27.5817 16 32 16H132C136.418 16 140 19.5817 140 24V44Z"/>
</clipPath><clipPath id="clip2_13_106">
<rect width="14" height="14" fill="white" transform="translate(39 27)"/>
</clipPath>
<clipPath id="clip3_13_106">
<rect width="16" height="16" fill="white" transform="translate(62 26)"/>
</clipPath>
<clipPath id="clip4_13_106">
<rect width="16" height="16" fill="white" transform="translate(86 26)"/>
</clipPath>
<clipPath id="clip5_13_106">
<rect width="16" height="16" fill="white" transform="translate(110 26)"/>
</clipPath>
</defs>
</svg>
